<svg height="512" viewBox="0 0 128 128" width="512" xmlns="http://www.w3.org/2000/svg"><g><g><path d="m119.31 116.78h-110.62a6.93 6.93 0 0 1 -5.933-10.509l55.309-91.7a6.93 6.93 0 0 1 11.868 0l55.309 91.7a6.93 6.93 0 0 1 -5.933 10.509z" fill="#f4d844"/><path d="m14.128 106.779 49.872-82.683 49.872 82.683z" fill="#de6246"/><g fill="#eaeaf0"><path d="m60 51.45h8v30.219h-8z"/><path d="m60 90.208h8v7.219h-8z"/></g></g><g><path d="m126.742 105.367-33.622-55.744a1.75 1.75 0 1 0 -3 1.809l33.622 55.744a5.179 5.179 0 0 1 -4.435 7.853h-110.617a5.179 5.179 0 0 1 -4.435-7.853l55.31-91.7a5.179 5.179 0 0 1 8.87 0l7.91 13.114a1.75 1.75 0 0 0 3-1.809l-7.91-13.113a8.679 8.679 0 0 0 -14.864 0l-55.31 91.7a8.679 8.679 0 0 0 7.429 13.161h110.62a8.679 8.679 0 0 0 7.432-13.162z"/><path d="m84.577 42.237a1.75 1.75 0 0 0 3-1.808l-2.686-4.453a1.75 1.75 0 0 0 -3 1.808z"/><path d="m64 22.346a1.753 1.753 0 0 0 -1.5.845l-49.87 82.684a1.749 1.749 0 0 0 1.5 2.654h99.744a1.749 1.749 0 0 0 1.5-2.654l-49.874-82.684a1.753 1.753 0 0 0 -1.5-.845zm-46.772 82.683 46.772-77.545 46.772 77.545z"/><path d="m62.25 51.45a1.75 1.75 0 0 0 1.75 1.75h2.25v26.719h-4.5v-17.239a1.75 1.75 0 0 0 -3.5 0v18.989a1.75 1.75 0 0 0 1.75 1.75h8a1.75 1.75 0 0 0 1.75-1.75v-30.219a1.75 1.75 0 0 0 -1.75-1.75h-4a1.75 1.75 0 0 0 -1.75 1.75z"/><path d="m68 88.458h-8a1.75 1.75 0 0 0 -1.75 1.75v7.219a1.75 1.75 0 0 0 1.75 1.75h8a1.75 1.75 0 0 0 1.75-1.75v-7.219a1.75 1.75 0 0 0 -1.75-1.75zm-1.75 7.219h-4.5v-3.719h4.5z"/></g></g></svg>